<svg width="15" height="18" viewBox="0 0 15 18" fill="none" xmlns="http://www.w3.org/2000/svg">
<path d="M6.61753 17.6233C7.10562 18.1256 7.89828 18.1256 8.38637 17.6233L14.6339 11.1944C15.122 10.6921 15.122 9.87644 14.6339 9.37418C14.1458 8.87192 13.3532 8.87192 12.8651 9.37418L8.74951 13.6133L8.74951 1.28579C8.74951 0.574584 8.19114 -5.9525e-07 7.5 -6.55671e-07C6.80887 -7.16092e-07 6.25049 0.574584 6.25049 1.28578L6.25049 13.6133L2.13491 9.3782C1.64682 8.87594 0.854159 8.87594 0.366069 9.3782C-0.122022 9.88046 -0.122022 10.6961 0.366068 11.1984L6.61363 17.6273L6.61753 17.6233Z" fill="black"/>
</svg>
