<svg width="14" height="18" viewBox="0 0 14 18" fill="none" xmlns="http://www.w3.org/2000/svg">
<path d="M6.69231 18C2.9976 18 0 14.9766 0 11.25C0 8.04375 4.53822 2.02852 5.80697 0.411328C6.01611 0.147656 6.32632 0 6.66094 0H6.72368C7.05829 0 7.36851 0.147656 7.57764 0.411328C8.84639 2.02852 13.3846 8.04375 13.3846 11.25C13.3846 14.9766 10.387 18 6.69231 18ZM3.34615 11.8125C3.34615 11.5031 3.09519 11.25 2.78846 11.25C2.48173 11.25 2.23077 11.5031 2.23077 11.8125C2.23077 13.9887 3.97704 15.75 6.13461 15.75C6.44135 15.75 6.69231 15.4969 6.69231 15.1875C6.69231 14.8781 6.44135 14.625 6.13461 14.625C4.59399 14.625 3.34615 13.3664 3.34615 11.8125Z" fill="black"/>
</svg>
