<svg width="29" height="29" viewBox="0 0 29 29" fill="none" xmlns="http://www.w3.org/2000/svg">
<path d="M14.0763 6.71997C10.0678 6.71997 6.79626 9.99155 6.79626 14C6.79626 18.0084 10.0678 21.28 14.0763 21.28C18.0847 21.28 21.3563 18.0084 21.3563 14C21.3563 9.99155 18.0847 6.71997 14.0763 6.71997ZM14.0763 19.4231C11.0994 19.4231 8.65311 17.0063 8.65311 14C8.65311 10.9937 11.0994 8.57681 14.0763 8.57681C17.0531 8.57681 19.4994 11.0231 19.4994 14C19.4994 16.9768 17.0531 19.4231 14.0763 19.4231Z" fill="black"/>
<path d="M14.0761 4.71579C14.6066 4.71579 15.0193 4.30316 15.0193 3.77263V0.943158C15.0193 0.412632 14.6066 0 14.0761 0C13.5456 0 13.1329 0.412632 13.1329 0.943158V3.8021C13.1329 4.30316 13.5456 4.71579 14.0761 4.71579Z" fill="black"/>
<path d="M6.17724 7.42733C6.35409 7.60418 6.58987 7.6926 6.82566 7.6926C7.06145 7.6926 7.29724 7.60418 7.47409 7.42733C7.82777 7.07365 7.82777 6.4547 7.47409 6.10102L5.46987 4.09681C5.11619 3.74312 4.49724 3.74312 4.14356 4.09681C3.78987 4.45049 3.78987 5.06944 4.14356 5.42312L6.17724 7.42733Z" fill="black"/>
<path d="M4.79196 14C4.79196 13.4695 4.37933 13.0569 3.8488 13.0569H1.01933C0.488803 13.0569 0.0761719 13.4695 0.0761719 14C0.0761719 14.5306 0.488803 14.9432 1.01933 14.9432H3.87828C4.37933 14.9432 4.79196 14.5306 4.79196 14Z" fill="black"/>
<path d="M6.17731 20.5725L4.1731 22.5767C3.81942 22.9304 3.81942 23.5494 4.1731 23.903C4.34994 24.0799 4.58573 24.1683 4.82152 24.1683C5.05731 24.1683 5.2931 24.0799 5.46994 23.903L7.47415 21.8988C7.82784 21.5452 7.82784 20.9262 7.47415 20.5725C7.14994 20.1894 6.56047 20.1894 6.17731 20.5725Z" fill="black"/>
<path d="M14.0761 23.2842C13.5456 23.2842 13.1329 23.6968 13.1329 24.2273V27.0863C13.1329 27.6168 13.5456 28.0294 14.0761 28.0294C14.6066 28.0294 15.0193 27.6168 15.0193 27.0863V24.2273C15.0193 23.6968 14.6066 23.2842 14.0761 23.2842Z" fill="black"/>
<path d="M21.9751 20.5726C21.6214 20.219 21.0025 20.219 20.6488 20.5726C20.2951 20.9263 20.2951 21.5453 20.6488 21.899L22.653 23.9032C22.8299 24.08 23.0656 24.1684 23.3014 24.1684C23.5372 24.1684 23.773 24.08 23.9499 23.9032C24.3035 23.5495 24.3035 22.9305 23.9499 22.5768L21.9751 20.5726Z" fill="black"/>
<path d="M27.133 13.0569H24.2741C23.7436 13.0569 23.3309 13.4695 23.3309 14C23.3309 14.5306 23.7436 14.9432 24.2741 14.9432H27.133C27.6636 14.9432 28.0762 14.5306 28.0762 14C28.0762 13.4695 27.6636 13.0569 27.133 13.0569Z" fill="black"/>
<path d="M21.2973 7.72214C21.5331 7.72214 21.7689 7.63372 21.9457 7.45687L23.9499 5.45266C24.3036 5.09898 24.3036 4.48003 23.9499 4.12635C23.5962 3.77266 22.9773 3.77266 22.6236 4.12635L20.6194 6.13056C20.2657 6.48424 20.2657 7.10319 20.6194 7.45687C20.8257 7.63372 21.0615 7.72214 21.2973 7.72214Z" fill="black"/>
</svg>
