<svg width="28" height="26" viewBox="0 0 28 26" fill="none" xmlns="http://www.w3.org/2000/svg">
<path d="M26.1744 21.4483C26.7566 21.4483 27.2286 20.9763 27.2286 20.3941C27.2286 19.8118 26.7566 19.3398 26.1744 19.3398H23.7648C23.1826 19.3398 22.7106 19.8118 22.7106 20.3941C22.7106 20.9763 23.1826 21.4483 23.7648 21.4483H26.1744Z" fill="black"/>
<path d="M26.1744 25.5147C26.7566 25.5147 27.2286 25.0427 27.2286 24.4605C27.2286 23.8782 26.7566 23.4062 26.1744 23.4062H1.17444C0.592209 23.4062 0.12022 23.8782 0.12022 24.4605C0.12022 25.0427 0.592209 25.5147 1.17444 25.5147H26.1744Z" fill="black"/>
<path d="M3.58409 21.4483C4.16632 21.4483 4.63831 20.9763 4.63831 20.3941C4.63831 19.8118 4.16632 19.3398 3.58409 19.3398H1.17445C0.592225 19.3398 0.120236 19.8118 0.120236 20.3941C0.120236 20.9763 0.592225 21.4483 1.17445 21.4483H3.58409Z" fill="black"/>
<path d="M5.58106 10.81C5.16936 10.3983 4.50187 10.3983 4.09017 10.81C3.67847 11.2217 3.67847 11.8892 4.09017 12.3009L5.79404 14.0047C6.20574 14.4164 6.87323 14.4164 7.28493 14.0047C7.69662 13.593 7.69662 12.9255 7.28493 12.5138L5.58106 10.81Z" fill="black"/>
<path d="M23.2589 12.3008C23.6706 11.8891 23.6706 11.2216 23.2589 10.8099C22.8472 10.3982 22.1797 10.3982 21.768 10.8099L20.0641 12.5138C19.6524 12.9255 19.6524 13.593 20.0641 14.0047C20.4758 14.4164 21.1433 14.4164 21.555 14.0047L23.2589 12.3008Z" fill="black"/>
<path d="M8.43925 20.4547C8.40584 21.036 7.90754 21.4801 7.32627 21.4467C6.745 21.4133 6.30088 20.915 6.33429 20.3337C6.56318 16.3514 9.97705 13.3086 13.9594 13.5375C17.6177 13.7478 20.5388 16.6642 20.7549 20.3221L20.7555 20.332C20.7898 20.9132 20.3465 21.4122 19.7653 21.4466C19.1841 21.4809 18.6851 21.0376 18.6507 20.4564L18.6501 20.4465C18.4971 17.8564 16.4287 15.7913 13.8384 15.6425C11.0186 15.4804 8.60132 17.6349 8.43925 20.4547Z" fill="black"/>
<path d="M14.8793 1.61947C14.8793 1.00926 14.4073 0.514592 13.8251 0.514592C13.2429 0.514592 12.7709 1.00926 12.7709 1.61947V9.34947C12.7709 9.95968 13.2429 10.4543 13.8251 10.4543C14.4073 10.4543 14.8793 9.95968 14.8793 9.34947V1.61947Z" fill="black"/>
<path d="M10.2159 5.35461C9.81153 4.93575 9.14414 4.92404 8.72528 5.32846C8.30643 5.73287 8.29472 6.40026 8.69913 6.81911L12.916 11.1866C13.3305 11.6159 14.0183 11.6159 14.4328 11.1866L18.6497 6.81911C19.0541 6.40026 19.0424 5.73287 18.6235 5.32846C18.2047 4.92404 17.5373 4.93575 17.1329 5.35461L13.6744 8.93659L10.2159 5.35461Z" fill="black"/>
</svg>
