<svg width="28" height="26" viewBox="0 0 28 26" fill="none" xmlns="http://www.w3.org/2000/svg">
<path fill-rule="evenodd" clip-rule="evenodd" d="M12.7273 4.04376L10.1569 6.70588C9.75008 7.12728 9.07864 7.13906 8.65725 6.7322C8.23586 6.32533 8.22407 5.6539 8.63094 5.2325L12.8734 0.838563C13.2904 0.406677 13.9824 0.406677 14.3994 0.838563L18.6418 5.2325C19.0487 5.6539 19.0369 6.32533 18.6155 6.7322C18.1941 7.13906 17.5226 7.12728 17.1158 6.70588L14.8485 4.35761V10.4637C14.8485 11.0776 14.3736 11.5753 13.7879 11.5753C13.2021 11.5753 12.7273 11.0776 12.7273 10.4637V4.04376ZM27.2727 20.3631C27.2727 20.9489 26.7979 21.4237 26.2121 21.4237H23.7879C23.2021 21.4237 22.7273 20.9489 22.7273 20.3631C22.7273 19.7774 23.2021 19.3025 23.7879 19.3025H26.2121C26.7979 19.3025 27.2727 19.7774 27.2727 20.3631ZM27.2727 24.454C27.2727 25.0398 26.7979 25.5146 26.2121 25.5146H1.06061C0.47485 25.5146 0 25.0398 0 24.454C0 23.8683 0.47485 23.3934 1.06061 23.3934H26.2121C26.7979 23.3934 27.2727 23.8683 27.2727 24.454ZM4.54545 20.3631C4.54545 20.9489 4.07061 21.4237 3.48485 21.4237H1.06061C0.47485 21.4237 0 20.9489 0 20.3631C0 19.7774 0.47485 19.3025 1.06061 19.3025H3.48485C4.07061 19.3025 4.54545 19.7774 4.54545 20.3631ZM3.994 10.7208C4.40819 10.3066 5.07973 10.3066 5.49392 10.7208L7.20812 12.435C7.62231 12.8492 7.62231 13.5207 7.20812 13.9349C6.79393 14.3491 6.12239 14.3491 5.7082 13.9349L3.994 12.2207C3.57981 11.8065 3.57981 11.135 3.994 10.7208ZM23.2787 10.7208C23.6929 11.135 23.6929 11.8065 23.2787 12.2207L21.5645 13.9349C21.1503 14.3491 20.4788 14.3491 20.0646 13.9349C19.6504 13.5207 19.6504 12.8492 20.0646 12.435L21.7788 10.7208C22.193 10.3066 22.8645 10.3066 23.2787 10.7208ZM8.36946 20.424C8.33585 21.0088 7.83454 21.4556 7.24975 21.422C6.66495 21.3884 6.21814 20.8871 6.25175 20.3023C6.48203 16.2958 9.91659 13.2346 13.9231 13.4649C17.6035 13.6764 20.5423 16.6105 20.7598 20.2906L20.7604 20.3006C20.7949 20.8853 20.3489 21.3873 19.7642 21.4219C19.1794 21.4564 18.6774 21.0104 18.6428 20.4257L18.6423 20.4157C18.4883 17.8099 16.4074 15.7324 13.8013 15.5826C10.9645 15.4195 8.53252 17.5871 8.36946 20.424Z" fill="black"/>
</svg>
